<svg width="26" height="22" viewBox="0 0 26 22" fill="none" xmlns="http://www.w3.org/2000/svg">
<path fill-rule="evenodd" clip-rule="evenodd" d="M25.6074 11.0132C25.6074 6.31032 17.553 1.73092 15.9383 0.860335C15.2222 0.473569 14.331 0.741216 13.9457 1.45739C13.5619 2.17063 13.8266 3.06328 14.5428 3.44857C17.2354 4.90298 20.7987 7.45742 22.1295 9.54405L2.07809 9.54405C1.26481 9.54409 0.607483 10.2014 0.607446 11.0147C0.607446 11.8265 1.26483 12.4852 2.07803 12.4853L22.1266 12.4853C20.7942 14.572 17.2339 17.1265 14.5427 18.5794C13.8266 18.9662 13.5619 19.8573 13.9457 20.572C14.2119 21.0646 14.7192 21.344 15.2413 21.3441C15.4766 21.3441 15.7163 21.2882 15.9384 21.1676C17.5515 20.297 25.6001 15.7205 25.6075 11.0176L25.6074 11.0132Z" fill="white"/>
</svg>
