<svg xmlns="http://www.w3.org/2000/svg" version="1.1" xmlns:xlink="http://www.w3.org/1999/xlink" width="512" height="512" x="0" y="0" viewBox="0 0 511.999 511.999" style="enable-background:new 0 0 512 512" xml:space="preserve" class=""><g><path fill="#FF636E" d="M511.97 204.817c-2.54-26.682-19.206-49.235-42.431-60.128-3.927-1.842-6.009-6.187-5.197-10.449 7.64-40.113-23.558-78.17-64.997-77.742-4.014.041-7.576-2.501-9-6.255a47.022 47.022 0 0 0-15.883-21.017h-14.887l-11.847 28.488v50.392l25.755 7.813-25.755 29.36v55.63l7.124 11.026h.905a6.57 6.57 0 0 1 4.94 2.237h48.884a6.57 6.57 0 0 1 4.94-2.237h90.876c3.849.002 6.937-3.287 6.573-7.118z" opacity="1" data-original="#ff636e"></path><path fill="#FFE02F" d="M251.053 213.735c-.439-12.35-10.963-21.959-23.321-21.959h-8.475a6.592 6.592 0 0 1-6.593-6.592V155.77a48.043 48.043 0 0 0-13.014-32.893h-20.187l-45.328 26.353s-28.787 55.715-34.311 57.39c-5.523 1.675-18.572 35.076-19.259 36.919-.687 1.842-20.604 28.041-20.604 28.041l8.029 28.483-8.029 5.069h140.105l12.597-5.069v-56.115a6.592 6.592 0 0 1 6.593-6.592h9.021c12.863-.002 23.236-10.656 22.776-23.621z" opacity="1" data-original="#ffe02f"></path><path fill="#FBC700" d="M110.76 232.814c3.927-1.842 6.009-6.187 5.197-10.449-7.641-40.113 23.558-78.17 64.997-77.742 4.014.041 7.577-2.501 9-6.255a46.907 46.907 0 0 1 9.697-15.492c-8.281-8.829-19.863-14.478-32.83-14.758-20.481-.442-38.04 12.261-44.86 30.251-1.423 3.754-4.985 6.296-9 6.255-41.439-.429-72.638 37.628-64.997 77.742.812 4.261-1.27 8.607-5.197 10.449C17.503 244.662 0 270.311 0 300.062l9.827 5.069h67.992l-9.827-5.069c0-29.751 17.503-55.4 42.768-67.248z" opacity="1" data-original="#fbc700" class=""></path><path fill="#FF4654" d="M411.387 211.937h-49.523a6.592 6.592 0 0 1-6.593-6.592v-49.523a6.592 6.592 0 0 1 6.593-6.592h9.021c12.862 0 23.235-10.655 22.774-23.62-.438-12.35-10.963-21.959-23.321-21.959h-8.475a6.592 6.592 0 0 1-6.593-6.592V67.645a48.024 48.024 0 0 1 19.19-38.417c-8.056-5.998-18.105-9.468-28.977-9.234-25.613.552-45.843 22.033-45.843 47.651v29.414a6.592 6.592 0 0 0 6.593 6.592h8.475c12.358 0 22.882 9.609 23.321 21.959.46 12.965-9.913 23.62-22.774 23.62h-9.021a6.592 6.592 0 0 0-6.593 6.592v49.523a6.592 6.592 0 0 0 6.593 6.592h49.523a6.592 6.592 0 0 1 6.593 6.592v8.475c0 12.357 9.609 22.882 21.959 23.321 12.965.461 23.62-9.912 23.62-22.774v-9.021c0-3.1 2.143-5.693 5.026-6.397a6.596 6.596 0 0 0-1.568-.196z" opacity="1" data-original="#ff4654" class=""></path><path fill="#60B9FE" d="M418.42 300.062h-90.876a6.592 6.592 0 0 0-6.592 6.592v8.475c0 12.357-9.609 22.881-21.958 23.32-12.965.461-23.621-9.912-23.621-22.774v-9.021a6.592 6.592 0 0 0-6.593-6.592h-56.115l-7.102 7.342v47.176h-20.26l-17.17 22.258v19.201l17.513 17.262h19.574v22.664l7.446 8.39c0 25.618 20.231 47.099 45.843 47.651 20.482.442 38.04-12.261 44.86-30.251 1.423-3.754 4.985-6.296 9-6.255 41.415.425 72.638-37.621 64.997-77.742-.812-4.261 1.27-8.606 5.197-10.448 23.225-10.892 39.891-33.446 42.431-60.128.364-3.831-2.725-7.12-6.574-7.12z" opacity="1" data-original="#60b9fe"></path><path fill="#73D578" d="M149.957 293.469v-8.475c0-12.357-9.609-22.881-21.958-23.32-12.965-.461-23.621 9.912-23.621 22.774v9.021a6.592 6.592 0 0 1-6.593 6.592H67.992l-8.029 5.069s15.796 53.57 19.917 61.124c4.121 7.555 37.087 59.751 37.087 63.872s26.098 31.592 26.098 31.592l56.587 15.528a48.043 48.043 0 0 0 13.014-32.893v-29.414a6.592 6.592 0 0 0-6.592-6.592h-9.021c-12.861 0-23.235-10.655-22.774-23.62.438-12.35 10.963-21.959 23.321-21.959h8.475a6.592 6.592 0 0 0 6.592-6.592v-56.115H156.55a6.592 6.592 0 0 1-6.593-6.592z" opacity="1" data-original="#73d578"></path><path fill="#00C63A" d="M189.954 461.754c-1.423-3.754-4.985-6.296-8.999-6.255-41.415.425-72.638-37.621-64.997-77.742.812-4.261-1.27-8.606-5.197-10.448-25.265-11.848-42.768-37.497-42.768-67.248H0c0 29.751 17.503 55.4 42.768 67.248 3.927 1.842 6.009 6.187 5.197 10.448-7.641 40.12 23.582 78.166 64.997 77.742 4.014-.041 7.576 2.501 8.999 6.255 6.82 17.99 24.379 30.693 44.86 30.251 12.967-.28 24.548-5.929 32.83-14.758a46.902 46.902 0 0 1-9.697-15.493z" opacity="1" data-original="#00c63a"></path></g></svg>