<svg xmlns="http://www.w3.org/2000/svg" fill="none" viewBox="0 0 656 486" height="486" width="656">
<g clip-path="url(#clip0_17119_38621)">
<rect fill="url(#paint0_linear_17119_38621)" height="486" width="656"></rect>
<path fill-opacity="0.25" fill="url(#paint1_linear_17119_38621)" d="M60.2819 713.783C-6.31145 713.783 -72.9092 714.908 -139.436 712.726C-150.779 712.328 -163.46 699.815 -172.447 689.882C-247.261 607.246 -247.772 476.863 -174.424 395.416C-98.0776 310.593 24.4666 299.869 110.5 373.369C172.76 426.605 231.138 484.81 293.46 537.983C309.967 552.019 334.436 561.952 355.593 562.615C381.466 563.411 399.818 542.553 407.405 516.068C415.564 487.725 406.066 464.021 385.226 444.951C323.093 388.073 259.622 332.714 199.017 274.179C91.6367 170.552 115.726 -7.63608 245.153 -77.6267C320.416 -118.35 410.522 -107.69 477.182 -48.2909C535.999 4.08546 593.354 58.3193 652.048 110.892C663.774 121.42 677.732 132.016 692.324 135.658C721.83 143.074 746.809 132.478 762.422 103.741C777.464 76.1303 773.448 45.4723 749.486 22.5599C713.609 -11.804 676.521 -44.9144 639.684 -78.2215C633.502 -83.8489 625.92 -87.8247 619.038 -92.5234L623.881 -101.527C691.241 -101.527 758.539 -102.058 825.894 -100.864C833.797 -100.731 842.652 -92.5875 849.156 -86.164C931.424 -4.58446 937.294 128.511 862.858 215.384C787.85 302.856 660.269 313.782 573.153 237.963C511.337 184.195 451.498 127.848 391.148 72.1591C370.691 53.2866 348.579 43.1572 321.305 51.8317C271.664 67.6572 260.194 129.504 301.104 168.041C360.881 224.324 422.759 278.16 482.597 334.443C545.496 393.573 568.437 467.868 547.218 553.158C526.955 634.605 474.826 687.247 396.313 707.574C324.621 726.113 259.745 708.503 203.86 657.449C146.443 605.004 89.1534 552.495 31.4148 500.384C-5.92835 466.679 -42.0606 466.349 -69.0828 498.531C-95.0174 529.523 -88.5844 568.192 -51.7476 602.026C-13.6999 636.92 24.471 671.687 62.5803 706.581C61.8142 709.029 61.1141 711.55 60.3523 713.998L60.2863 713.801L60.2819 713.783Z"></path>
<path stroke="url(#paint2_linear_17119_38621)" d="M9.56848 714.428C26.3534 714.356 43.1379 714.284 59.9205 714.283L60.3701 715.623L60.8297 714.146C61.2119 712.918 61.5785 711.672 61.9443 710.431C62.3105 709.188 62.6759 707.95 63.0575 706.731L63.1525 706.427L62.918 706.213C46.3845 691.074 29.8403 675.96 13.2999 660.849C-8.28703 641.129 -29.8675 621.414 -51.4094 601.657C-69.7726 584.791 -80.5139 566.76 -83.4613 549.13C-86.4062 531.516 -81.5811 514.246 -68.6999 498.853C-55.2638 482.851 -39.6096 474.98 -22.7124 475.25C-5.79691 475.52 12.4607 483.95 31.0798 500.755C78.2658 543.342 125.152 586.195 172.054 629.062C182.541 638.648 193.03 648.234 203.523 657.818C259.525 708.979 324.573 726.642 396.438 708.058C475.132 687.684 527.397 634.9 547.703 553.279C568.967 467.81 545.968 393.33 482.94 334.079C453.21 306.116 422.977 278.757 392.753 251.405L392.163 250.871C361.741 223.341 331.331 195.814 301.447 167.677C260.768 129.358 272.238 67.9991 321.457 52.3082C348.491 43.7097 370.422 53.7185 390.809 72.5266C403.13 83.8959 415.43 95.2932 427.731 106.691C475.675 151.116 523.624 195.546 572.824 238.34C660.155 314.346 788.054 303.387 863.238 215.71C937.846 128.634 931.959 -4.75782 849.508 -86.519L849.507 -86.5197C846.253 -89.7333 842.39 -93.3999 838.34 -96.2804C834.301 -99.1527 830.009 -101.295 825.903 -101.364C774.392 -102.277 722.914 -102.182 671.422 -102.086C655.577 -102.057 639.73 -102.027 623.881 -102.027H623.583L623.441 -101.764L618.598 -92.7603L618.385 -92.3641L618.756 -92.1105C620.928 -90.6274 623.18 -89.2098 625.426 -87.7956C626.742 -86.9671 628.057 -86.1397 629.352 -85.301C632.873 -83.0212 636.287 -80.6379 639.348 -77.8517L639.349 -77.8506C644.978 -72.7607 650.613 -67.6755 656.249 -62.59C687.493 -34.3943 718.751 -6.18658 749.14 22.921L749.14 22.9213C772.937 45.6752 776.918 76.0865 761.983 103.502L761.983 103.503C754.218 117.794 744.144 127.54 732.379 132.8C720.614 138.061 707.11 138.858 692.446 135.173L692.445 135.172C677.981 131.563 664.101 121.042 652.382 110.52L652.382 110.52C624.532 85.5739 596.982 60.2536 569.432 34.9329L565 30.8588C535.972 4.1819 506.926 -22.4731 477.514 -48.6642C410.702 -108.199 320.369 -118.893 244.915 -78.0665C115.187 -7.91272 91.0495 170.68 198.669 274.539C239.812 314.276 282.28 352.555 324.747 390.831C344.841 408.943 364.935 427.055 384.888 445.32C405.617 464.288 415.021 487.803 406.924 515.929L406.924 515.93C399.366 542.314 381.149 562.901 355.609 562.116C334.573 561.456 310.211 551.57 293.784 537.602C262.632 511.023 232.464 483.185 202.296 455.332L201.658 454.743C171.705 427.088 141.744 399.426 110.825 372.989L110.825 372.989C24.5749 299.304 -98.2771 310.067 -174.795 395.082C-248.318 476.722 -247.801 607.394 -172.818 690.218C-168.319 695.19 -162.878 700.828 -157.131 705.275C-151.397 709.712 -145.287 713.021 -139.454 713.226L-139.453 713.226C-89.8065 714.854 -40.1176 714.641 9.56848 714.428Z"></path>
</g>
<defs>
<linearGradient gradientUnits="userSpaceOnUse" y2="664.207" x2="168.803" y1="-22.5245" x1="34.4688" id="paint0_linear_17119_38621">
<stop stop-color="#9595FD"></stop>
<stop stop-color="#3F3FAB" offset="0.90919"></stop>
</linearGradient>
<linearGradient gradientUnits="userSpaceOnUse" y2="221.996" x2="48.1879" y1="203.5" x1="545.5" id="paint1_linear_17119_38621">
<stop stop-opacity="0.02" stop-color="#FAFAFA" offset="0.0812327"></stop>
<stop stop-opacity="0.36" stop-color="#FAFAFA" offset="1"></stop>
</linearGradient>
<linearGradient gradientUnits="userSpaceOnUse" y2="195.681" x2="415.93" y1="211.5" x1="-23" id="paint2_linear_17119_38621">
<stop stop-opacity="0.35" stop-color="white"></stop>
<stop stop-opacity="0" stop-color="white" offset="1"></stop>
</linearGradient>
<clipPath id="clip0_17119_38621">
<rect fill="white" height="486" width="656"></rect>
</clipPath>
</defs>
</svg>
