<svg width="720" height="372" viewBox="0 0 720 372" fill="none" xmlns="http://www.w3.org/2000/svg">
<path d="M252.159 213.307C248.32 213.113 243.71 213.24 241.672 216.041C239.372 219.203 242.081 223.447 240.868 227.026C239.192 231.969 231.634 232.9 225.641 232.889C192.723 232.828 159.805 232.766 126.888 232.705C120.91 232.694 114.537 232.78 109.558 235.621C104.579 238.462 102.155 245.161 106.366 248.806C109.696 251.687 115.464 251.457 118.914 254.232C123.278 257.742 121.467 264.459 116.847 267.718C112.227 270.977 105.93 271.706 99.9862 272.264C92.414 272.975 84.5297 273.701 78.0749 277.174C71.6201 280.648 67.1338 287.787 70.0001 293.849C71.9545 297.981 76.8483 300.659 81.9067 301.67C86.965 302.682 92.2429 302.287 97.4155 301.886C122.772 299.923 148.129 297.959 173.487 295.995C177.294 295.701 181.231 295.418 184.854 296.467C188.476 297.515 191.72 300.271 191.721 303.554C191.723 307.489 187.323 310.365 183.022 311.719C178.721 313.074 173.936 313.656 170.35 316.105C164.381 320.181 164.05 328.406 168.133 333.937C172.217 339.469 179.578 342.63 186.98 344.205C226.702 352.656 266.843 322.637 306.948 329.632C318.126 331.581 328.332 336.307 338.88 340.037C343.431 341.647 348.182 343.081 353.006 344.016C362.502 345.857 369.413 336.365 363.336 329.833C357.871 323.959 350.635 319.292 342.454 316.604C335.005 314.157 326.803 313.237 320.004 309.658C313.204 306.078 308.23 298.35 312.087 292.354C315.43 287.156 323.516 285.89 330.404 286.407C337.292 286.924 344.315 288.619 350.994 287.085C359.466 285.14 365.427 278.214 367.532 270.902C370.484 260.649 366.78 249.284 358.487 241.485C350.194 233.687 337.659 229.515 325.372 229.957C320.085 230.147 314.858 231.135 309.567 231.168C304.453 231.199 298.585 230.201 294.952 226.838C291.819 223.938 291.94 219.23 288.256 216.695C280.683 211.485 261.363 213.772 252.158 213.307H252.159Z" fill="#F2F2F2"/>
<path d="M401.975 255.932C392.912 260.739 388.144 272.555 395.408 279.247C399.757 283.253 406.739 284.126 413.115 284.022C419.492 283.918 426.024 283.097 432.143 284.642C438.262 286.186 443.897 291.109 442.856 296.513C442.046 300.718 437.422 303.768 432.587 304.729C427.752 305.689 422.705 304.989 417.81 304.285C413.636 308.647 415.606 315.621 420.359 319.521C425.112 323.421 431.787 324.975 438.203 326.205C483.556 334.899 531.295 334.267 576.315 324.377C581.9 323.15 587.685 321.668 591.848 318.243C596.01 314.817 597.919 308.86 594.58 304.823C591.333 300.899 584.968 300.36 579.468 299.432C573.968 298.504 567.619 295.697 567.626 290.882C567.636 284.676 577.278 282.78 584.49 282.399C599.008 281.632 613.399 279.12 627.114 274.959C637.474 271.815 648.721 266.39 650.619 257.095C652.432 248.219 644.649 239.917 635.938 234.894C615.666 223.202 589.765 222.294 565.353 221.8C533.75 221.16 502.146 220.563 470.54 220.011C460.645 219.838 449.484 220.101 442.71 226.298C438.64 230.022 437.15 235.239 434.416 239.775C426.514 252.885 410.261 251.538 401.976 255.932H401.975Z" fill="#F2F2F2"/>
<path d="M503.436 214.792V90.5189H429.312L395.644 188.967V129.452C395.644 116.035 390.275 105.698 379.686 98.7298C374.58 95.3698 368.238 92.8427 360.836 91.2188C353.865 89.6895 345.723 88.9141 336.635 88.9141C327.395 88.9141 319.118 89.6928 312.034 91.2286C304.518 92.858 298.08 95.3933 292.896 98.7643C287.459 102.3 283.321 106.789 280.596 112.105C277.984 117.203 276.659 123.12 276.659 129.692V214.792H266.366V90.5189H192.241L147.113 222.477V255.077H206.379V277.088H266.366V255.077H280.072C280.411 255.733 280.773 256.378 281.162 257.011C284.168 261.904 288.668 266.083 294.536 269.433C305.297 275.578 319.368 278.693 336.36 278.693C352.891 278.693 366.78 275.535 377.639 269.306C383.542 265.92 388.07 261.718 391.097 256.815C391.448 256.246 391.778 255.665 392.089 255.077H443.45V277.088H503.436V255.077H525.327V214.791H503.436V214.792Z" fill="#7E98FD"/>
<path d="M272.813 247.773H250.922V269.785H207.941V247.773H148.676V223.526L191.665 97.8203H250.923V222.093H272.813V247.773ZM207.941 222.093V154.357L188.123 222.093H207.941Z" fill="white"/>
<path d="M278.219 240.436V129.694C278.219 107.378 295.375 96.2188 329.693 96.2188C363.363 96.2188 380.199 107.299 380.199 129.454V240.195C380.199 250.116 375.456 257.797 365.974 263.235C356.493 268.673 344.309 271.393 329.417 271.393C314.058 271.393 301.686 268.713 292.301 263.353C282.912 257.994 278.219 250.356 278.219 240.436ZM336.15 242.162V124.99C336.15 121.555 333.901 119.835 329.409 119.835C324.645 119.835 322.268 121.555 322.268 124.99V242.162C322.268 245.602 324.645 247.318 329.409 247.318C333.901 247.318 336.15 245.602 336.15 242.162Z" fill="white"/>
<path d="M509.884 247.773H487.993V269.785H445.012V247.773H385.746V223.526L428.735 97.8203H487.993V222.093H509.884V247.773ZM445.012 222.093V154.357L425.194 222.093H445.012Z" fill="white"/>
<path d="M537.258 115.465L528.605 109.318L519.951 115.465L509.516 108.053L513.079 104.352L519.951 109.233L528.605 103.086L537.258 109.233L545.91 103.086L554.564 109.233L563.218 103.086L571.871 109.233L580.525 103.087L589.18 109.233L596.054 104.352L599.617 108.053L589.18 115.465L580.525 109.318L571.871 115.465L563.218 109.318L554.564 115.465L545.91 109.318L537.258 115.465Z" fill="#7E98FD"/>
<path d="M537.258 103.371L528.605 97.2241L519.951 103.371L509.516 95.9585L513.079 92.2579L519.951 97.1392L528.605 90.9924L537.258 97.1391L545.91 90.9922L554.564 97.1392L563.218 90.9924L571.871 97.1392L580.525 90.9925L589.18 97.1393L596.054 92.2578L599.617 95.9586L589.18 103.371L580.525 97.2241L571.871 103.371L563.218 97.2241L554.564 103.371L545.91 97.2242L537.258 103.371Z" fill="#7E98FD"/>
<path d="M537.258 91.2771L528.605 85.1303L519.951 91.2771L509.516 83.8647L513.079 80.1641L519.951 85.0454L528.605 78.8986L537.258 85.0453L545.91 78.8984L554.564 85.0454L563.218 78.8986L571.871 85.0454L580.525 78.8987L589.18 85.0455L596.054 80.164L599.617 83.8648L589.18 91.2769L580.525 85.1301L571.871 91.277L563.218 85.1303L554.564 91.2771L545.91 85.1304L537.258 91.2771Z" fill="#7E98FD"/>
<path d="M80.7048 278.695C77.58 283.294 75.37 288.227 79.7679 292.852C81.6061 294.762 84.0781 296.123 86.6481 297.235C87.0665 297.417 87.5023 297.593 87.9281 297.765C88.9576 298.178 89.0776 298.142 87.839 298.03C85.5711 297.764 83.3912 297.146 81.4004 296.144C79.6485 295.267 78.0994 294.057 76.9903 292.594C73.3926 287.782 75.9673 282.105 80.7048 278.695Z" fill="white"/>
<path d="M85.3515 282.242C83.6567 285.63 82.7935 288.315 86.4646 291.034C87.3365 291.688 88.389 292.274 89.3938 292.803C89.5479 292.884 89.7037 292.964 89.8585 293.055C89.1191 293.096 88.3789 293.033 87.6545 292.895C81.1533 291.592 79.8438 285.426 85.3515 282.242Z" fill="white"/>
<path d="M176.636 315.898C173.025 321.213 170.471 326.913 175.553 332.259C177.677 334.466 180.534 336.038 183.504 337.324C183.988 337.534 184.492 337.737 184.984 337.936C186.173 338.414 186.312 338.372 184.88 338.242C182.26 337.935 179.74 337.221 177.44 336.062C175.415 335.05 173.625 333.651 172.343 331.961C168.185 326.4 171.161 319.838 176.636 315.898Z" fill="white"/>
<path d="M182.006 319.992C180.047 323.908 179.05 327.01 183.292 330.152C184.3 330.908 185.516 331.586 186.678 332.197C186.855 332.29 187.036 332.383 187.215 332.487C186.36 332.535 185.505 332.462 184.668 332.303C177.154 330.797 175.641 323.672 182.006 319.992Z" fill="white"/>
<path d="M588.594 233.128C605.674 230.9 626.047 234.855 636.704 247.306C635.783 246.817 634.878 246.241 633.961 245.75C633.392 245.443 632.819 245.12 632.257 244.806C631.457 244.408 630.632 243.959 629.837 243.563C624.785 241.066 619.406 239.096 613.829 237.66C610.791 236.855 607.67 236.225 604.572 235.624C603.79 235.497 602.203 235.225 601.423 235.085C599.842 234.823 598.245 234.584 596.656 234.336C595.106 234.133 593.384 233.842 591.836 233.638C590.759 233.489 589.678 233.327 588.594 233.128Z" fill="white"/>
<path d="M586.922 238.8C604.002 236.572 624.375 240.527 635.033 252.978C634.111 252.489 633.206 251.913 632.29 251.423C631.72 251.115 631.148 250.792 630.585 250.478C629.785 250.08 628.96 249.631 628.166 249.236C623.113 246.738 617.734 244.769 612.157 243.332C609.119 242.528 605.999 241.897 602.9 241.296C602.118 241.169 600.531 240.897 599.751 240.757C598.17 240.496 596.573 240.256 594.984 240.008C593.434 239.805 591.712 239.515 590.164 239.31C589.087 239.161 588.007 239 586.922 238.8Z" fill="white"/>
<path d="M299.02 358.303C307.113 358.303 313.673 352.669 313.673 345.718C313.673 338.767 307.113 333.133 299.02 333.133C290.928 333.133 284.367 338.767 284.367 345.718C284.367 352.669 290.928 358.303 299.02 358.303Z" fill="#7E98FD"/>
<path d="M526.536 181.1C534.629 181.1 541.189 175.465 541.189 168.515C541.189 161.564 534.629 155.93 526.536 155.93C518.443 155.93 511.883 161.564 511.883 168.515C511.883 175.465 518.443 181.1 526.536 181.1Z" fill="#7E98FD"/>
<path d="M526.533 191.016L537.464 207.277H515.602L526.533 191.016Z" fill="#7E98FD"/>
<path d="M283.743 61.9141L294.674 78.1752H272.812L283.743 61.9141Z" fill="#7E98FD"/>
<path d="M308.267 83.5892L297.336 67.3281H319.198L308.267 83.5892Z" fill="#7E98FD"/>
<path d="M543.352 200.359H565.783V181.094H543.352V200.359Z" fill="#7E98FD"/>
<path d="M320.703 63.3509H343.134V44.0859H320.703V63.3509Z" fill="#7E98FD"/>
<path d="M255.789 367.937H278.22V348.672H255.789V367.937Z" fill="#7E98FD"/>
<path d="M181.873 297.47C183.316 297.494 184.804 297.86 185.842 298.722C186.841 299.552 187.324 300.76 187.414 301.952C187.544 303.649 186.89 305.423 185.461 306.601C184.032 307.779 181.802 308.261 179.97 307.614C176.907 306.531 175.861 302.932 172.78 301.887C171.842 301.569 170.634 301.413 170.264 300.607C169.9 299.811 170.717 298.926 171.662 298.656C172.575 298.396 173.533 298.524 174.473 298.52C175.38 298.517 176.206 298.313 177.076 298.118C178.632 297.769 180.258 297.442 181.873 297.47Z" fill="#F2F2F2"/>
<path d="M173.886 308.474C173.475 309.051 172.83 309.526 172.064 309.682C170.961 309.906 169.775 309.424 169.072 308.661C167.999 307.498 167.157 304.199 169.092 303.308C170.788 302.526 173.492 304.128 174.13 305.424C174.608 306.396 174.529 307.571 173.886 308.474Z" fill="#F2F2F2"/>
<path d="M314.263 294.802C313.769 295.74 313.609 296.793 313.693 297.821C313.941 300.842 316.437 303.639 319.769 304.631C322.286 305.379 325.237 305.092 327.379 303.732C329.521 302.371 330.716 299.927 330.152 297.691C329.687 295.846 328.132 294.302 326.27 293.3C324.485 292.34 321.629 291.192 319.484 291.613C317.286 292.044 315.233 292.958 314.263 294.802Z" fill="#F2F2F2"/>
<path d="M326.472 307.267C326.646 307.934 327.055 308.539 327.529 309.087C328.018 309.651 328.594 310.176 329.314 310.51C330.034 310.843 330.916 310.966 331.682 310.719C332.535 310.442 333.132 309.743 333.398 308.994C333.789 307.89 333.525 306.631 332.71 305.714C331.894 304.797 330.193 304.006 328.813 304.247C327.12 304.541 326.095 305.819 326.472 307.267Z" fill="#F2F2F2"/>
<path d="M573.66 286.819C572.72 287.707 572.441 289.022 572.758 290.19C573.074 291.358 573.928 292.382 574.981 293.169C576.114 294.016 577.493 294.618 578.957 294.906C579.903 295.092 580.967 295.131 581.774 294.667C582.585 294.201 582.944 293.349 583.252 292.554C584.021 290.578 584.789 288.602 585.557 286.625C585.78 286.053 585.999 285.416 585.711 284.866C585.354 284.183 584.371 283.937 583.5 283.893C581.409 283.788 579.794 284.493 578.015 285.315C576.594 285.972 574.815 285.728 573.66 286.819Z" fill="#F2F2F2"/>
<path d="M587.405 285.432C586.727 286.177 586.424 287.196 586.737 288.102C587.049 289.009 588.028 289.749 589.128 289.791C590.252 289.834 591.299 289.166 591.816 288.308C592.334 287.45 592.398 286.439 592.276 285.479C592.211 284.968 592.087 284.441 591.724 284.032C591.47 283.747 591.016 283.485 590.581 283.501C590.032 283.52 590.121 283.728 589.776 283.966C588.992 284.506 588.064 284.707 587.405 285.432Z" fill="#F2F2F2"/>
<path d="M595.204 282.82C594.531 282.82 594.008 282.958 593.515 283.239C593.022 283.521 592.681 284.062 592.869 284.545C592.983 284.84 593.276 285.066 593.607 285.193C593.937 285.321 594.304 285.36 594.665 285.377C595.18 285.4 595.706 285.378 596.193 285.234C596.681 285.091 597.13 284.814 597.372 284.424C597.614 284.033 597.619 283.523 597.316 283.165C597.013 282.806 595.877 282.82 595.204 282.82Z" fill="#F2F2F2"/>
<path d="M171.76 80.0217C159.384 95.6104 144.121 108.719 125.971 119.348C124.144 120.401 120.83 120.636 118.734 119.805C104.799 114.159 94.545 105.352 87.9708 93.3843C87.0033 91.5838 87.2766 88.7378 88.5033 87.1685C100.879 71.5796 116.142 58.4708 134.292 47.8421C136.119 46.7882 139.433 46.5535 141.529 47.3847C155.464 53.031 165.718 61.8382 172.292 73.8058C173.259 75.6062 172.986 78.4523 171.76 80.0217Z" fill="#F2F2F2"/>
<path d="M120.978 88.734H114.011V82.75H111.139V88.734H104.172V91.2003H111.139V97.1844H114.011V91.2003H120.978V88.734Z" fill="#7E98FD"/>
<path d="M145.955 67.2809H138.987V61.2969H136.116V67.2809H129.148V69.7472H136.116V75.7313H138.987V69.7472H145.955V67.2809Z" fill="#7E98FD"/>
<path d="M157.956 84.4546L156.108 86.0411C154.27 84.4625 151.302 83.987 147.751 84.7021C143.977 85.4621 140.065 87.455 136.736 90.3138C133.408 93.1726 131.087 96.5323 130.202 99.7738C129.37 102.824 129.924 105.373 131.762 106.952L129.914 108.539C127.413 106.391 126.612 103.096 127.659 99.2617C128.653 95.6189 131.221 91.8777 134.889 88.7274C138.557 85.5771 142.913 83.3718 147.154 82.5177C151.619 81.6188 155.455 82.3066 157.956 84.4546Z" fill="#7E98FD"/>
<path d="M491.917 75.5588C473.767 64.9299 458.504 51.8212 446.128 36.2324C444.902 34.6631 444.628 31.817 445.596 30.0166C452.17 18.0488 462.424 9.24178 476.359 3.59543C478.455 2.76445 481.769 2.99919 483.596 4.05279C501.746 14.6816 517.009 27.7905 529.385 43.3792C530.612 44.9484 530.885 47.7946 529.917 49.5951C523.343 61.5628 513.089 70.3698 499.154 76.0162C497.058 76.8469 493.744 76.6122 491.917 75.5588Z" fill="#7E98FD"/>
<path d="M481.773 31.9422V25.9582H488.74V23.4919H481.773V17.5078H478.901V23.4919H471.934V25.9582H478.901V31.9422H481.773Z" fill="white"/>
<path d="M506.749 53.3954V47.4113H513.717V44.945H506.749V38.9609H503.878V44.945H496.91V47.4113H503.878V53.3954H506.749Z" fill="white"/>
<path d="M486.752 63.7025L484.905 62.1159C486.743 60.5373 487.297 57.9881 486.464 54.938C485.579 51.6964 483.259 48.3369 479.93 45.4781C476.602 42.6193 472.69 40.6262 468.916 39.8662C465.364 39.1511 462.396 39.6267 460.558 41.2053L458.711 39.6187C461.212 37.4707 465.048 36.7828 469.512 37.6817C473.753 38.5357 478.109 40.741 481.777 43.8914C485.445 47.0418 488.013 50.7829 489.007 54.4257C490.054 58.2598 489.253 61.5545 486.752 63.7025Z" fill="white"/>
<path d="M146.344 320.973L137.69 314.826L129.037 320.973L118.602 313.56L122.165 309.86L129.037 314.741L137.69 308.594L146.344 314.741L154.996 308.594L163.65 314.741L172.303 308.594L180.958 314.741L189.611 308.594L198.266 314.741L205.14 309.86L208.703 313.56L198.266 320.972L189.611 314.826L180.958 320.973L172.303 314.826L163.65 320.973L154.996 314.826L146.344 320.973Z" fill="#7E98FD"/>
<path d="M146.344 308.871L137.69 302.724L129.037 308.871L118.602 301.458L122.165 297.758L129.037 302.639L137.69 296.492L146.344 302.639L154.996 296.492L163.65 302.639L172.303 296.492L180.958 302.639L189.611 296.492L198.266 302.639L205.14 297.758L208.703 301.458L198.266 308.871L189.611 302.724L180.958 308.871L172.303 302.724L163.65 308.871L154.996 302.724L146.344 308.871Z" fill="#7E98FD"/>
<path d="M146.344 296.777L137.69 290.63L129.037 296.777L118.602 289.364L122.165 285.664L129.037 290.545L137.69 284.398L146.344 290.545L154.996 284.398L163.65 290.545L172.303 284.398L180.958 290.545L189.611 284.398L198.266 290.545L205.14 285.664L208.703 289.364L198.266 296.777L189.611 290.63L180.958 296.777L172.303 290.63L163.65 296.777L154.996 290.63L146.344 296.777Z" fill="#7E98FD"/>
</svg>
