<?xml version="1.0" encoding="UTF-8"?>
<svg id="Layer_2" data-name="Layer 2" xmlns="http://www.w3.org/2000/svg" viewBox="0 0 534.5 484.87">
  <defs>
    <style>
      .cls-1 {
        fill: #37afc5;
      }

      .cls-2 {
        fill: #42b4c8;
      }

      .cls-3 {
        fill: #161e8f;
      }

      .cls-4 {
        fill: #161e90;
      }

      .cls-5 {
        fill: #2c3ba2;
      }

      .cls-6 {
        fill: #40b3c7;
      }

      .cls-7 {
        fill: #15a6bc;
      }

      .cls-8 {
        fill: #3144a8;
      }

      .cls-9 {
        fill: #2d3aa1;
      }

      .cls-10 {
        fill: #283ca5;
      }

      .cls-11 {
        fill: #58bcce;
      }

      .cls-12 {
        fill: #27349d;
      }

      .cls-13 {
        fill: #47b6c9;
      }

      .cls-14 {
        fill: #3145aa;
      }

      .cls-15 {
        fill: #0acfc7;
      }

      .cls-16 {
        fill: #0c9eb8;
      }

      .cls-17 {
        fill: #1d2694;
      }

      .cls-18 {
        fill: #07bdbf;
      }

      .cls-19 {
        fill: #2638a2;
      }

      .cls-20 {
        fill: #05b1bd;
      }

      .cls-21 {
        fill: #2559c4;
      }

      .cls-22 {
        fill: #52bacc;
      }

      .cls-23 {
        fill: #2facc2;
      }

      .cls-24 {
        fill: #263da7;
      }

      .cls-25 {
        fill: #273da6;
      }

      .cls-26 {
        fill: #2940a8;
      }

      .cls-27 {
        fill: #2436a1;
      }

      .cls-28 {
        fill: #2746b0;
      }

      .cls-29 {
        fill: #4eb8cb;
      }

      .cls-30 {
        fill: #4ab7ca;
      }

      .cls-31 {
        fill: #029ab5;
      }

      .cls-32 {
        fill: #039bb6;
      }

      .cls-33 {
        fill: #2147b5;
      }

      .cls-34 {
        fill: #2dacc2;
      }
    </style>
  </defs>
  <g id="Layer_1-2" data-name="Layer 1">
    <g>
      <path class="cls-15" d="M264.83,.95c2.93-2.14,5.41-.16,7.8,1.05,34.43,17.53,68.8,35.18,103.24,52.7,49.29,25.08,98.62,50.08,147.93,75.1,2.98,1.51,5.93,3.04,8.24,5.55,3.37,3.66,3.41,6.74-.6,9.7-4.81,3.56-9.86,6.84-15.01,9.89-78.71,46.58-157.45,93.11-236.19,139.63-1.1,.65-2.04,1.81-4.21,1.17-.61-5.49-.35-11.19-.07-17.59,76.66-45.61,153.46-91.31,230.35-137.06-1.68-2.53-3.99-3.23-5.99-4.3-49.63-26.6-100.28-51.21-150.39-76.88-16.6-8.5-33.14-17.11-49.98-25.11-.36-2.37-2.16-3.89-3.9-4.87-9.83-5.55-19.57-11.41-31.13-12.81-5.77-.54-7.27-2.93-5.02-7.96,.88-1.96,2.1-3.65,3.59-5.21,.72-.76,2.6-1.27,1.33-3Zm80.65,48.26c3,2.75,6.45,4.7,10.73,5.18-2.88-2.97-7-3.73-10.73-5.18Z"/>
      <path class="cls-31" d="M264.83,.95c1.27,1.73-.61,2.24-1.33,3-1.49,1.56-2.71,3.25-3.59,5.21-2.25,5.02-.75,7.41,5.02,7.96-6.48,4.3-13.79,7.01-20.53,10.8-2.23,1.25-5.14,1.56-6.42,4.27-17.15,8.85-34.26,17.78-51.44,26.55-51.47,26.28-102.97,52.49-154.45,78.76-1.59,.81-3.49,1.22-4.83,3.36,76.9,45.62,153.75,91.22,230.55,136.78v18.16c-3.09-.02-5.31-1.93-7.65-3.31-70.4-41.64-140.77-83.33-211.15-125.01-10.6-6.28-21.27-12.46-31.85-18.79-3.55-2.12-7.44-4.12-7.15-9.3,.29-5.13,4.35-6.71,8.05-8.59C72.96,97.86,137.85,64.91,202.75,31.99c20.63-10.46,41.04-21.38,62.08-31.04Z"/>
      <path class="cls-18" d="M271.96,41.33c32.19,16.39,64.45,32.65,96.56,49.21,29.01,14.96,58.54,28.91,87.1,44.74,2.02,1.12,4.17,2.14,5.34,4.46,.56,3.7-2.22,5.33-4.72,6.85-15.07,9.19-30.17,18.35-45.33,27.38-44.37,26.41-88.86,52.62-133.11,79.24-7.69,4.63-13.59,4.93-21.68,.02-42.43-25.76-85.31-50.77-128.02-76.07-.41-.24-.68-.7-1.02-1.06,4.74-.13,7.3-4.16,11.01-6.14,1.33,.65,2.72,1.22,3.99,1.97,39.84,23.62,79.69,47.22,119.45,70.98,4.05,2.42,7.19,2.68,11.4,.17,55.21-32.97,110.52-65.77,165.78-98.65,1.49-.88,3.46-1.31,4.11-3.25-.38-1.45-1.68-1.66-2.65-2.15-56.63-28.63-113.27-57.24-169.9-85.88-1.69-.85-3.34-1.47-5.24-.98,3.39-2.93,6.06-6.31,6.93-10.84Z"/>
      <path class="cls-21" d="M245.93,416c-37.17-22.05-74.35-44.08-111.52-66.14-37.91-22.5-75.81-45.01-113.71-67.52-5.15-3.06-10.34-6.04-15.39-9.25-6.84-4.36-7.2-10.45-.34-14.4,9.51-5.48,19.46-10.2,29.23-15.21,1.41-.72,2.95-.76,4.33,.04,4.56,2.62,9.08,5.32,14.82,8.69-9.4,4.77-17.74,9.01-26.08,13.24,.55,2.45,2.47,2.98,3.96,3.85,24.52,14.42,49.06,28.8,73.58,43.21,.7,.41,1.27,1.05,1.9,1.58-.79,3.1,2.14,3.19,3.62,4.09,16.82,10.19,33.71,20.28,50.62,30.31,8.93,5.3,17.97,10.43,26.96,15.63h.02c.43,.78,1.16,.98,1.98,1h.02c.33,.34,.67,.66,1,.99,0,0,0,0,0,0,.43,.78,1.16,.98,1.98,1h.01c.34,.34,.67,.66,1.01,.99,8.43,5.38,16.98,10.57,25.96,15.02,.47,.75,1.2,.97,2.03,.98h.02c.59,1.29,1.57,1.97,2.99,2h.01c.44,.79,1.17,.98,1.98,1h.02c.44,.79,1.16,.99,1.98,1.01h.01c.33,.33,.67,.65,1,.98h.01c.43,.79,1.16,.99,1.98,1.01h.02c.44,.79,1.18,.98,1.99,1h0c7.34,4.66,14.68,9.31,22.02,13.97,0,0,0,.01,0,.01-.55,3.35,1.5,7.22-2.01,9.98-.33,.01-.67,.03-1,.04-2.34,.31-4.86-.88-7.01,.89Z"/>
      <path class="cls-31" d="M271.96,41.33c-.87,4.54-3.54,7.92-6.93,10.84-1.57,.91-3.1,1.9-4.71,2.72-54.76,27.77-109.54,55.53-164.29,83.32-1.69,.86-3.88,1.19-4.81,3.74,15.25,9.07,30.52,18.16,45.79,27.25,.36,.26,.73,.53,1.09,.79v-.04c-3.72,1.98-6.28,6.01-11.02,6.14-17.05-10.07-34.14-20.07-51.11-30.28-4.62-2.78-4.5-6.21-.1-9.35,1.75-1.25,3.65-2.34,5.57-3.32,60.25-30.64,120.52-61.24,180.75-91.92,3.43-1.75,6.53-2.33,9.76,.1Z"/>
      <path class="cls-3" d="M109.82,254.11c33.66,19.92,67.33,39.84,100.99,59.76,15.6,9.24,31.2,18.49,47.02,27.87v19.33c-53.4-31.65-106.15-62.92-158.91-94.19,2.12-4.12,4.24-8.23,6.44-12.51,1.53-.09,3-.17,4.46-.26Z"/>
      <path class="cls-3" d="M395.92,332.99c13.09-7.89,26.16-15.84,39.29-23.67,23.44-13.97,46.92-27.88,70.38-41.82,.42-.25,.75-.64,1.97-1.71-8.8-4.48-17.21-8.77-26.54-13.53,6.05-3.61,11.24-6.72,16.55-9.89,11.43,5.14,22.27,10.96,32.96,17.03,5.05,2.86,4.68,9.18-.62,12.81-5.62,3.85-11.59,7.17-17.46,10.65-36.08,21.37-72.18,42.71-108.27,64.06-.28,.16-.63,.2-.94,.3-.44,.26-.88,.51-1.32,.77,0,0-.07,.04-.07,.04-.84-.03-1.52,.21-1.9,1.03,0,0-.02,0-.02,0-.9-.07-1.61,.19-1.91,1.13,0,0,.05-.04,.05-.04-.38,.27-.77,.55-1.15,.82,0,0-.07,.04-.07,.04-.64-.31-1.28-.63-1.92-.94,0,0,.03-.02,.03-.02,.33-.32,.67-.64,1-.96,0,0,.02-.02,.02-.02,.33-.31,.67-.63,1-.94,.32-.05,.63-.09,.95-.12,.34-.31,.67-.62,1.01-.94l.02-.02c.34-.31,.68-.62,1.02-.92,.32-.04,.63-.09,.95-.12,.34-.31,.67-.62,1.01-.94,2.37-2.32,6.45-2.54,7.93-6.32-3.45-3.36-7.58-3.78-11.89-3.66-.75-.05-1.51-.1-2.44-.16,.16-.8,.28-1.38,.4-1.96Z"/>
      <path class="cls-21" d="M428.75,394.11c-20.71,12.3-41.41,24.61-62.13,36.9-28.76,17.06-57.52,34.1-86.3,51.13-.98,.58-2.05,.99-3.75,1.81v-18.62c3.59-3.36,8.65-5.6,13.32-8.37,40.63-24.11,81.32-48.13,122.02-72.13,2.26-1.33,4.11-3.42,6.84-3.92,1.88,5.5,5.17,9.94,10,13.2Z"/>
      <path class="cls-4" d="M117.1,382.01c18.94,11.11,37.91,22.18,56.82,33.35,26.52,15.66,52.99,31.39,79.48,47.1,1.56,.92,3.07,1.93,4.6,2.89v19.51c-45.27-26.88-89.7-53.26-134.13-79.63-2.43-7.61-4.19-15.49-8.89-22.18,.7-.35,1.41-.7,2.11-1.04Z"/>
      <path class="cls-21" d="M114.99,383.06c4.71,6.69,6.47,14.57,8.89,22.18-39.22-23.28-78.45-46.54-117.66-69.85-8.01-4.76-8-11.49,.16-15.93,8.62-4.7,17.48-8.97,26.19-13.51,2.46-1.28,4.65-1.29,7.04,.2,4.06,2.53,8.23,4.88,13.34,7.9-9.08,4.71-17.26,8.95-25.45,13.21,.42,2.65,2.68,3.06,4.26,3.95,13.32,7.51,25.94,16.26,39.8,22.84,.84,.4,1.41,1.36,2.11,2.06-2.52,2.35,.65,2.52,1.41,2.98,13.25,8.07,26.59,16.01,39.9,23.98Z"/>
      <path class="cls-4" d="M428.75,394.11c-4.84-3.26-8.12-7.7-10-13.2,25.17-14.97,50.33-29.95,75.5-44.92,4.14-2.46,8.26-4.94,13.36-7.99-8.96-4.63-17.25-8.91-26.78-13.83,6.03-3.67,11.3-6.88,17.01-10.35,10.85,5.74,21.84,11.25,32.49,17.34,4.72,2.7,4.9,6.78,1.38,10.96-1.16,1.38-2.56,2.69-4.1,3.6-32.93,19.5-65.9,38.94-98.85,58.4Z"/>
      <path class="cls-4" d="M424.9,254c20.4-12.22,40.8-24.44,61.19-36.66,6.92-4.14,13.83-8.29,21.59-12.95-9.22-4.81-17.42-9.08-26.28-13.7,5.5-4.12,11.03-6.95,16.75-10.22,10.67,5.53,21.39,10.85,31.87,16.61,5.48,3.01,5.53,9.2,.25,13.01-10.28,7.4-21.57,13.19-32.41,19.68-21.98,13.16-44.1,26.09-66.17,39.11-.85,.5-1.79,.84-2.68,1.26-.7-.34-1.4-.69-2.09-1.03,1.68-1.03,3.19-2.22,4.03-4.23-.66-3.6-3.12-5.86-6.01-7.8-.73-1.02-.46-2.05-.04-3.08Z"/>
      <path class="cls-21" d="M109.82,254.11c-1.47,.08-2.93,.17-4.46,.26-2.2,4.28-4.32,8.39-6.44,12.51-25.34-15.01-50.69-30.01-76.03-45.02-5.88-3.48-11.81-6.87-17.6-10.48-6.98-4.35-7.07-10.7,.11-14.76,9.13-5.16,18.57-9.76,27.88-14.58,.87-.45,1.85-.7,3.09-1.15,5.42,2.55,10.56,5.76,16.33,9.66-8.94,4.67-17.22,9-26.56,13.88,28.61,16.99,56.14,33.34,83.68,49.69Z"/>
      <path class="cls-21" d="M424.94,257.07c2.89,1.94,5.35,4.2,6.01,7.8-.85,2-2.36,3.19-4.03,4.23-4.75,2.88-9.61,5.61-14.2,8.72-2.12,1.44-5.35,1.99-5.63,5.42-.82,.93-1.75,1.7-3.05,1.87-1.76-1.83-3.12,0-4.34,.7-7.91,4.47-15.74,9.1-23.58,13.7-13.26,7.78-26.52,15.55-39.73,23.41-1.57,.94-4.13,1.47-3.13,4.38-18.42,10.63-36.83,21.27-55.25,31.9-.02-1.96-.17-3.94-.03-5.89,.3-4.12-1.29-8.56,1.97-12.21,1.53-.61,3.16-1.04,4.57-1.86,15.77-9.1,31.57-18.16,47.23-27.44,18.79-11.14,37.46-22.49,56.18-33.75,9.2-5.59,18.39-11.22,27.62-16.76,2.95-1.77,5.6-4.26,9.38-4.22Z"/>
      <path class="cls-21" d="M397.92,348.02c-.32,.04-.63,.08-.95,.12-.33,.31-.67,.63-1,.94,0,0-.02,.02-.02,.02-.33,.32-.67,.64-1,.96,0,0-.03,.02-.03,.02-1.44,1.24-4.65,.96-3.7,4.27-10.21,6.11-20.4,12.23-30.63,18.31-27.54,16.38-55.09,32.75-82.63,49.12,0-5.56,0-11.12,.01-16.69,6.12-3.63,12.23-7.28,18.35-10.9,15.67-9.27,31.4-18.43,46.98-27.85,8.91-5.39,18.28-10.03,26.71-16.21,9.75-4.2,18.44-10.38,27.95-15.03,4.31-.13,8.44,.3,11.89,3.66-1.48,3.78-5.56,4-7.93,6.32-.34,.31-.67,.62-1.01,.94-.32,.04-.64,.08-.95,.12-.34,.31-.68,.62-1.02,.92,0,0-.02,.02-.02,.02-.34,.31-.67,.62-1.01,.94Z"/>
      <path class="cls-27" d="M387.94,278.05c-18.72,11.26-37.39,22.61-56.18,33.75-15.66,9.28-31.46,18.34-47.23,27.44-1.41,.81-3.04,1.25-4.57,1.86-.01-.36-.03-.72-.04-1.08,15.78-9.46,31.55-18.95,47.35-28.39,18.8-11.23,37.63-22.43,56.46-33.62,.7-.41,1.52-.62,2.28-.92,.77,.07,1.52,.16,1.93,.95Z"/>
      <path class="cls-25" d="M370.01,350.15c-8.43,6.18-17.8,10.82-26.71,16.21-15.58,9.42-31.31,18.57-46.98,27.85-6.12,3.62-12.23,7.27-18.35,10.9-.63,.66-1.27,1.32-1.9,1.98-.96-3.66,2.1-4.58,4.24-5.86,21.87-13.06,43.79-26.06,65.72-39.03,7.58-4.48,15.23-8.83,22.85-13.24,.38,.4,.75,.8,1.13,1.2Z"/>
      <path class="cls-24" d="M187.92,364.12c-8.99-5.21-18.02-10.34-26.96-15.63-16.92-10.03-33.8-20.12-50.62-30.31-1.48-.9-4.41-.99-3.62-4.09,15.58,9.14,31.2,18.22,46.74,27.43,11.25,6.67,22.39,13.5,33.58,20.26,.29,.78,.59,1.55,.88,2.33Z"/>
      <path class="cls-26" d="M333.26,327.29c-1-2.9,1.55-3.44,3.13-4.38,13.21-7.86,26.47-15.63,39.73-23.41,7.84-4.6,15.67-9.22,23.58-13.7,1.22-.69,2.58-2.53,4.34-.7-20.62,12.26-41.25,24.53-61.87,36.8-2.98,1.78-5.94,3.59-8.92,5.39Z"/>
      <path class="cls-7" d="M237.98,32.19c1.27-2.71,4.18-3.02,6.42-4.27,6.74-3.79,14.06-6.5,20.53-10.8,11.55,1.4,21.29,7.26,31.13,12.81,1.73,.98,3.53,2.5,3.9,4.87-8.92-4.69-17.89-9.29-26.73-14.11-4.19-2.28-7.94-2.18-12.17,.08-7.57,4.05-15.37,7.64-23.08,11.42Z"/>
      <path class="cls-19" d="M114.99,383.06c-13.32-7.97-26.65-15.91-39.9-23.98-.76-.46-3.93-.63-1.41-2.98,14.64,8.36,29.25,16.76,43.42,25.91-.7,.35-1.41,.7-2.11,1.04Z"/>
      <path class="cls-9" d="M187.92,364.12c-.29-.78-.59-1.55-.88-2.33,13.92,8.1,27.84,16.19,41.74,24.33,2.57,1.5,5.02,3.21,7.52,4.83-.79,.05-1.57,.11-2.36,.16,0,0,0,0,0,0-.42-.83-1.16-1-1.99-.99,0,0-.02-.01-.02-.01-.41-.83-1.15-1-1.98-1,0,0-.01-.01-.01-.01-.33-.32-.67-.65-1-.97,0,0-.01,0-.01,0-.4-.84-1.15-1.01-1.98-1,0,0-.02-.01-.02-.01-.41-.83-1.15-1-1.98-.99,0,0-.01,0-.01,0-.53-1.36-1.53-2.03-2.99-1.99,0,0-.02-.01-.02-.01-.42-.85-1.18-1-2.03-.98-8.97-4.45-17.52-9.64-25.96-15.02-.34-.33-.67-.66-1.01-.99,0,0-.01,0-.01,0-.41-.84-1.15-1-1.98-1,0,0,0,0,0,0-.33-.32-.67-.65-1-.97,0,0-.02-.01-.02-.01-.4-.84-1.15-1-1.98-.99h-.02Z"/>
      <path class="cls-14" d="M387.94,278.05c-.41-.79-1.17-.88-1.93-.95,11.34-7.59,23.22-14.27,35.03-21.08,.31-.02,.55-.16,.73-.4,1.05-.54,2.09-1.08,3.14-1.62-.42,1.03-.69,2.06,.04,3.08-3.78-.05-6.43,2.45-9.38,4.22-9.23,5.54-18.42,11.17-27.62,16.76Z"/>
      <path class="cls-12" d="M370.01,350.15c-.38-.4-.75-.8-1.13-1.2,8.77-5.72,17.7-11.19,27.03-15.95-.12,.58-.23,1.15-.4,1.96,.94,.06,1.69,.11,2.44,.16-9.51,4.66-18.2,10.83-27.95,15.03Z"/>
      <path class="cls-10" d="M233.94,391.11c.79-.05,1.57-.11,2.36-.16,7.41,3.97,14.99,7.66,21.46,13.16-.74,.06-1.44,.21-1.8,.98-7.34-4.66-14.68-9.31-22.02-13.97Z"/>
      <path class="cls-17" d="M255.96,405.08c.36-.77,1.06-.92,1.8-.98,1.17,5.86,.28,11.73,.55,17.88-4.06-.51-6.61-2.92-9.46-4.71,.79-1.82,3.18-.58,4.11-2.15,.33-.01,.67-.03,1-.04,3.44-1.21,4.06-4.28,2.01-9.98h0Z"/>
      <path class="cls-8" d="M407.08,283.24c.28-3.44,3.51-3.99,5.63-5.42,4.6-3.11,9.45-5.83,14.2-8.72,.7,.34,1.4,.69,2.09,1.03-5.71,4.26-11.98,7.59-18.2,11-.31,.05-.54,.21-.7,.47-.39,.19-.77,.38-1.16,.57-.29,.19-.57,.39-.86,.58-.34,.16-.67,.33-1.01,.49Z"/>
      <path class="cls-28" d="M279.91,340.02c.01,.36,.03,.72,.04,1.08-3.26,3.64-1.67,8.09-1.97,12.21-.14,1.95,0,3.92,.03,5.89-2.21,1.63-2.08-.22-2.09-1.49-.05-4.94-.02-9.88-.02-14.31,1.04-2.1,2.23-3.13,4.02-3.37Z"/>
      <path class="cls-33" d="M276.07,407.08c.63-.66,1.27-1.32,1.9-1.98,0,5.56,0,11.12-.01,16.69-1.64,.79-2.04-.17-2.04-1.51,.02-4.4,.09-8.8,.15-13.19Z"/>
      <path class="cls-5" d="M391.22,354.36c-.95-3.32,2.25-3.03,3.7-4.27,.64,.31,1.28,.63,1.92,.94-1.58,1.6-3.61,2.44-5.61,3.33Z"/>
      <path class="cls-10" d="M252.95,415.11c-.92,1.57-3.31,.34-4.11,2.15-.97-.42-1.94-.84-2.91-1.26,2.15-1.77,4.68-.58,7.01-.89Z"/>
      <path class="cls-5" d="M398.01,350.2c.31-.94,1.01-1.2,1.91-1.13-.64,.38-1.27,.75-1.91,1.13Z"/>
      <path class="cls-5" d="M399.94,349.06c.37-.82,1.06-1.07,1.9-1.03-.42,.74-1.01,1.15-1.9,1.03Z"/>
      <path class="cls-5" d="M396.91,350.98c.38-.27,.77-.55,1.15-.82-.38,.27-.77,.55-1.15,.82Z"/>
      <path class="cls-21" d="M421.77,255.62c-.18,.25-.43,.38-.73,.4,.25-.14,.49-.27,.73-.4Z"/>
      <path class="cls-21" d="M410.11,281.6c.16-.26,.4-.42,.7-.47-.23,.16-.47,.32-.7,.47Z"/>
      <path class="cls-21" d="M408.09,282.74c.29-.19,.57-.39,.86-.58-.29,.19-.57,.39-.86,.58Z"/>
      <path class="cls-5" d="M401.91,347.98c.44-.26,.88-.51,1.32-.77-.44,.26-.88,.51-1.32,.77Z"/>
      <path class="cls-20" d="M345.48,49.21c3.73,1.45,7.85,2.21,10.73,5.18-4.28-.48-7.73-2.43-10.73-5.18Z"/>
      <path class="cls-10" d="M255.96,405.09c2.05,5.7,1.43,8.77-2.01,9.98,3.51-2.75,1.46-6.63,2.01-9.98Z"/>
      <path class="cls-10" d="M221.94,384.12c1.46-.04,2.46,.63,2.99,1.99-1.42-.03-2.4-.71-2.99-1.99Z"/>
      <path class="cls-10" d="M219.9,383.13c.84-.02,1.6,.14,2.03,.98-.83-.02-1.56-.23-2.03-.98Z"/>
      <path class="cls-10" d="M224.94,386.12c.83,0,1.57,.16,1.98,.99-.82-.02-1.55-.21-1.98-.99Z"/>
      <path class="cls-10" d="M226.94,387.12c.83-.01,1.57,.16,1.98,1-.82-.02-1.54-.22-1.98-1Z"/>
      <path class="cls-10" d="M229.95,389.11c.83,0,1.57,.17,1.98,1-.82-.02-1.55-.22-1.98-1Z"/>
      <path class="cls-10" d="M231.94,390.12c.83-.01,1.58,.16,1.99,.99-.82-.02-1.55-.21-1.99-.99Z"/>
      <path class="cls-24" d="M187.94,364.12c.83-.01,1.57,.15,1.98,.99-.81-.02-1.54-.21-1.98-.99Z"/>
      <path class="cls-24" d="M190.94,366.11c.83,0,1.57,.17,1.98,1-.82-.02-1.55-.22-1.98-1Z"/>
      <path class="cls-24" d="M189.94,365.13c.33,.32,.67,.65,1,.97-.33-.32-.67-.65-1-.97Z"/>
      <path class="cls-10" d="M228.93,388.12c.33,.32,.67,.65,1,.97-.33-.32-.67-.65-1-.97Z"/>
      <path class="cls-24" d="M192.94,367.12c.34,.33,.67,.66,1.01,.99-.34-.33-.67-.66-1.01-.99Z"/>
      <path class="cls-18" d="M137.01,169.2c.36,.26,.73,.53,1.09,.79-.36-.26-.73-.53-1.09-.79Z"/>
      <path class="cls-5" d="M400.92,346.02c.34-.31,.67-.62,1.01-.94-.34,.31-.67,.62-1.01,.94Z"/>
      <path class="cls-5" d="M394.95,350.06c.33-.32,.67-.64,1-.96-.33,.32-.67,.64-1,.96Z"/>
      <path class="cls-5" d="M398.95,347.07c.34-.31,.68-.62,1.02-.92-.34,.31-.68,.62-1.02,.92Z"/>
      <path class="cls-5" d="M397.92,348.02c.34-.31,.67-.62,1.01-.94-.34,.31-.67,.62-1.01,.94Z"/>
      <path class="cls-5" d="M395.97,349.09c.33-.31,.67-.63,1-.94-.33,.31-.67,.63-1,.94Z"/>
      <path class="cls-18" d="M127.32,144.27c-.98-3.59,1.54-4.83,3.94-6.05,15.72-8.03,31.45-16.04,47.18-24.05,27.75-14.12,55.52-28.19,83.21-42.42,3.75-1.93,6.83-2.08,10.72-.07,43.39,22.29,86.87,44.39,130.33,66.55,2.23,1.14,4.72,2.08,4.16,5.43-.7,2.06-2.62,2.89-4.31,3.89-43.65,25.92-87.33,51.78-130.92,77.79-3.36,2.01-5.84,1.84-9.12-.11-42.48-25.29-85.04-50.43-127.56-75.65-2.68-1.59-5.82-2.58-7.65-5.31Zm267.6-1.56c-5.69-2.69-10.49-4.82-15.16-7.19-35.63-18.1-71.26-36.22-106.83-54.45-3.91-2-7.16-2.11-11.21-.08-39.93,19.91-79.09,41.37-119.52,60.3-.67,.31-1.62,.54-1.44,2.15,41.96,24.86,84.16,49.86,126.5,74.94,42.63-25.27,84.68-50.2,127.67-75.68Z"/>
      <path class="cls-32" d="M353.76,145.22c-28.77,17.11-57.54,34.22-86.6,51.5-29.08-17.24-57.91-34.33-86.74-51.43l-.2-1.92c28.76-14.69,57.53-29.39,86.72-44.3,28.86,14.72,57.81,29.48,86.76,44.24l.06,1.91Zm-164.66-.59c1.23,.75,1.65,1.01,2.08,1.26,23.96,14.11,47.93,28.19,71.85,42.35,3.11,1.84,5.67,1.6,8.77-.27,17.26-10.39,34.64-20.57,51.98-30.82,6.9-4.08,13.81-8.14,20.88-12.31-.77-.7-.97-1-1.26-1.14-24.21-12.28-48.44-24.52-72.64-36.83-2.86-1.46-5.36-1.05-8.04,.36-8.85,4.63-17.73,9.21-26.65,13.73-15.29,7.75-30.61,15.43-46.99,23.68Z"/>
      <path class="cls-34" d="M276.28,133.99c.33-.03,.57,.1,.74,.38,.34,.23,.68,.45,1.02,.68,0,0,0-.05,0-.05-.49,.43-.99,.86-1.48,1.3-.28,.03-.49-.07-.63-.31-.48-.26-.96-.52-1.44-.79-.25,.09-.44,.02-.56-.21-.48-.26-.96-.52-1.44-.79-.25,.09-.44,.02-.56-.21-.48-.26-.96-.53-1.45-.79-.25,.09-.43,.02-.55-.21-.48-.26-.96-.53-1.44-.79-2.92-.47-4.94,1.58-7.25,2.7-7.16,3.49-14.25,7.15-21.8,10.96,1.3,1.17,1.91,1.71,2.51,2.25-.39,.36-.79,.72-1.18,1.09-1.97-.5-3.63-1.46-5.26-3.39,3.79-3.13,8.22-4.57,12.2-6.76,4.95-2.73,10-5.28,15.01-7.89,1.64-.85,3.31-1.6,5.24-1.09,.59,.96,1.51,.97,2.47,.88,.21-.14,.38-.11,.52,.1,.43,.82,1.18,1.01,2.02,1.02,0,0-.01,0-.01,0,.51,.3,1.02,.6,1.53,.9,.22-.13,.38-.07,.48,.15,.44,.29,.88,.57,1.32,.86Z"/>
      <path class="cls-1" d="M276.56,136.3c.49-.43,.98-.86,1.48-1.3,7.35,2.79,13.83,7.43,21.4,9.91-.41,2.17-2.25,2.35-3.54,3.15-.81-.05-1.58-.17-1.97-1.02,.28-2.37-1.86-2.39-3.15-3.1-4.71-2.61-9.47-5.1-14.22-7.63Z"/>
      <path class="cls-13" d="M248.63,154.2c-.3,0-.54-.12-.73-.35-.32-.25-.64-.5-.96-.75,0,0,0,0,0,0,0-.34,0-.67,0-1.01,0,0,0,0,0,0,.48-.06,.95-.11,1.43-.17,.24-.05,.44,.02,.58,.23,.43,.28,.86,.56,1.29,.84,.31,0,.55,.12,.75,.35,.35,.24,.71,.48,1.06,.72,4.63,2.7,9.26,5.4,13.89,8.1,.01,.34,.02,.68,.03,1.02-.03,.34-.06,.67-.09,1.01-5.63-2.55-10.73-6.02-15.98-9.23-.43-.25-.86-.5-1.29-.76Z"/>
      <path class="cls-30" d="M265.98,163.18c-.01-.34-.02-.68-.03-1.02,3.23,.4,5.24-2.31,7.98-3.15,.42,.86,1.19,1.05,2.04,1.09-2.17,1.62-4.32,3.29-7,4.02-.71-1.21-1.92-.86-2.99-.94Z"/>
      <path class="cls-22" d="M285.98,154.1c-2.22,1.54-4.34,3.26-6.98,4.09-.48-.44-.96-.89-1.44-1.33,1.82-1.77,4.12-2.76,6.37-3.83,.41,.87,1.21,1.02,2.05,1.07Z"/>
      <path class="cls-11" d="M293.93,147.04c.39,.85,1.16,.97,1.97,1.02-2.15,1.63-4.25,3.33-6.91,4.08-.45-.42-.89-.83-1.34-1.25,1.78-1.8,4.07-2.75,6.28-3.86Z"/>
      <path class="cls-30" d="M240.76,149.21c.39-.36,.79-.72,1.18-1.09,1.86,.65,3.61,1.49,5.05,2.88-.01,.36-.02,.72-.03,1.08h0c-.43,.04-.86,.08-1.29,.12-1.99-.42-3.63-1.41-4.91-3Z"/>
      <path class="cls-6" d="M287.64,150.9c.45,.42,.89,.83,1.34,1.25-1,.65-2,1.3-3,1.96-.84-.06-1.64-.2-2.05-1.07,1.24-.71,2.48-1.42,3.71-2.13Z"/>
      <path class="cls-2" d="M277.56,156.86c.48,.44,.96,.89,1.44,1.33-1.01,.64-2.02,1.27-3.03,1.91-.85-.04-1.63-.23-2.04-1.09,1.21-.72,2.42-1.43,3.64-2.15Z"/>
      <path class="cls-16" d="M265.98,163.18c1.07,.08,2.28-.27,2.99,.94-1,.91-2.03,1.01-3.07,.07,.03-.34,.06-.67,.09-1.01Z"/>
      <path class="cls-23" d="M270.42,130.96c-.96,.09-1.88,.08-2.47-.88,.98-.15,1.77,.24,2.47,.88Z"/>
      <path class="cls-23" d="M272.96,132.08c-.84-.01-1.59-.2-2.02-1.02,.67,.34,1.35,.68,2.02,1.02Z"/>
      <path class="cls-23" d="M278.04,135.05c-.34-.23-.68-.46-1.02-.68,.34,.23,.68,.45,1.02,.68Z"/>
      <path class="cls-23" d="M276.28,133.99c-.44-.29-.88-.57-1.32-.86,.44,.29,.88,.57,1.32,.86Z"/>
      <path class="cls-23" d="M274.48,132.98c-.51-.3-1.02-.6-1.53-.9,.51,.3,1.02,.6,1.53,.9Z"/>
      <path class="cls-29" d="M248.63,154.2c.43,.25,.86,.5,1.29,.76-.43-.25-.86-.5-1.29-.76Z"/>
      <path class="cls-29" d="M246.94,153.09c.32,.25,.64,.5,.96,.75-.32-.25-.64-.5-.96-.75Z"/>
      <path class="cls-29" d="M245.66,152.21c.43-.04,.86-.08,1.29-.12,0,.34,0,.67,0,1.01-.43-.3-.85-.59-1.28-.89Z"/>
      <path class="cls-23" d="M275.93,136c-.48-.26-.96-.52-1.44-.79,.48,.26,.96,.52,1.44,.79Z"/>
      <path class="cls-23" d="M273.93,135c-.48-.26-.96-.52-1.44-.79,.48,.26,.96,.52,1.44,.79Z"/>
      <path class="cls-23" d="M271.93,134c-.48-.26-.96-.52-1.44-.79,.48,.26,.96,.52,1.44,.79Z"/>
      <path class="cls-23" d="M269.93,133c-.48-.26-.96-.52-1.44-.79,.48,.26,.96,.53,1.44,.79Z"/>
      <path class="cls-29" d="M251,153.34c.35,.24,.71,.48,1.06,.72-.35-.24-.71-.48-1.06-.72Z"/>
      <path class="cls-29" d="M248.96,152.15c.43,.28,.86,.56,1.29,.84-.43-.28-.86-.56-1.29-.84Z"/>
      <path class="cls-29" d="M246.99,151c.46,.31,.93,.61,1.39,.91-.48,.06-.95,.11-1.43,.17,.01-.36,.02-.72,.03-1.08Z"/>
    </g>
  </g>
</svg>