<svg xmlns="http://www.w3.org/2000/svg" version="1.1" xmlns:xlink="http://www.w3.org/1999/xlink" width="32" height="32" x="0" y="0" viewBox="0 0 512 512" style="enable-background:new 0 0 512 512" xml:space="preserve"><g><path d="M337.775 14.993v34.232c16.569 0 30 13.431 30 30s-13.431 30-30 30v35c0 8.284 6.716 15 15 15h35c0 16.569 13.431 30 30 30s30-13.431 30-30h34.232c8.944 0 15.831-7.77 14.91-16.667C489.149 67.503 429.497 7.851 354.442.083c-8.897-.921-16.667 5.966-16.667 14.91zM101.859 163.438c21.126 0 39.097 13.774 45.403 32.812h42.097v-39.688c18.122 0 32.812-14.691 32.812-32.812 0-18.122-14.691-32.812-32.812-32.812V36.25c-91.596 0-166.743 70.374-174.353 160h41.45c6.306-19.038 24.277-32.812 45.403-32.812zM276.859 244.062c-18.122 0-32.812-14.691-32.812-32.812h-39.688v42.097c19.038 6.306 32.812 24.277 32.812 45.403s-13.774 39.097-32.812 45.403V430h61.562c0-33.583 14.296-65.61 39.442-87.87 36.175-32.023 58.995-78.757 58.995-130.88H309.67c.001 18.122-14.689 32.812-32.811 32.812z" fill="#FFFFFF" opacity="1" data-original="#000000"></path><path d="M174.359 331.562c0-8.284 6.716-15 15-15 9.822 0 17.812-7.991 17.812-17.812s-7.99-17.812-17.812-17.812c-8.284 0-15-6.716-15-15V226.25h-39.688c-8.284 0-15-6.716-15-15 0-9.822-7.99-17.812-17.812-17.812s-17.812 7.991-17.812 17.812c0 8.284-6.716 15-15 15H15c3.916 46.046 25.687 86.963 58.354 115.88 25.146 22.26 39.442 54.286 39.442 87.87h61.562v-98.438zM113.359 477c0 19.33 15.67 35 35 35h81.477c18.924 0 34.42-15.041 34.984-33.957l.539-18.043h-152z" fill="#FFFFFF" opacity="1" data-original="#000000"></path></g></svg>