<svg xmlns="http://www.w3.org/2000/svg" version="1.1" xmlns:xlink="http://www.w3.org/1999/xlink" width="512" height="512" x="0" y="0" viewBox="0 0 512 512" style="enable-background:new 0 0 512 512" xml:space="preserve"><g><g fill="#17A6D7"><path d="M416.667 271H288.133c-8.284 0-15-6.716-15-15s6.716-15 15-15h128.533c8.284 0 15 6.716 15 15s-6.715 15-14.999 15zM328.3 182.634h-40.167c-8.284 0-15-6.716-15-15s6.716-15 15-15H320.8l43.7-58.268c2.833-3.777 7.279-6 12-6h40.167c8.284 0 15 6.716 15 15s-6.716 15-15 15H384l-43.7 58.268a15.001 15.001 0 0 1-12 6zM416.667 423.634H376.5a15.001 15.001 0 0 1-12-6l-43.7-58.268h-32.667c-8.284 0-15-6.716-15-15s6.716-15 15-15H328.3c4.721 0 9.167 2.223 12 6l43.7 58.268h32.667c8.284 0 15 6.716 15 15s-6.716 15-15 15z" fill="#17A6D7" opacity="1" data-original="#17a6d7"></path></g><path fill="#25F5EB" d="M456.833 158.533c-30.419 0-55.167-24.748-55.167-55.167S426.415 48.2 456.833 48.2 512 72.947 512 103.366s-24.748 55.167-55.167 55.167z" opacity="1" data-original="#25f5eb"></path><circle cx="456.833" cy="256" r="55.167" fill="#25F5EB" transform="rotate(-22.48 456.614 255.602)" opacity="1" data-original="#25f5eb"></circle><path fill="#01D2E3" d="M456.833 463.8c-30.419 0-55.167-24.747-55.167-55.166s24.748-55.167 55.167-55.167S512 378.215 512 408.634 487.252 463.8 456.833 463.8zM512 256c0 30.419-24.748 55.167-55.167 55.167S401.667 286.419 401.667 256z" opacity="1" data-original="#01d2e3"></path><path fill="#385B7A" d="M254.746 150.507c6.965-.081 13.777.514 20.374 1.723 14.548 2.666 28.014-8.511 28.014-23.302V15c0-8.284-6.716-15-15-15h-64.266a15.001 15.001 0 0 0-14.885 13.141l-5.208 41.689a205.436 205.436 0 0 0-53.061 22.013l-33.196-25.82a14.999 14.999 0 0 0-19.816 1.233L52.256 97.7a15 15 0 0 0-1.234 19.815l25.821 33.198a205.617 205.617 0 0 0-22.013 53.06l-41.69 5.208A15.001 15.001 0 0 0 0 223.866v64.268a15.001 15.001 0 0 0 13.141 14.885l41.69 5.208a205.632 205.632 0 0 0 22.013 53.06l-25.821 33.198a14.998 14.998 0 0 0 1.234 19.815l45.444 45.444a14.997 14.997 0 0 0 19.816 1.233l33.196-25.82a205.436 205.436 0 0 0 53.061 22.013l5.208 41.689A15 15 0 0 0 223.867 512h64.266c8.284 0 15-6.716 15-15V383.071c0-14.79-13.466-25.968-28.014-23.302a106.09 106.09 0 0 1-20.374 1.723C197.799 360.83 151.264 312.946 150.509 256c.755-56.946 47.29-104.83 104.237-105.493z" opacity="1" data-original="#385b7a"></path><path fill="#0C1638" d="m13.141 303.019 41.69 5.208a205.632 205.632 0 0 0 22.013 53.06l-25.821 33.198a14.998 14.998 0 0 0 1.234 19.815l45.444 45.444a14.997 14.997 0 0 0 19.816 1.233l33.196-25.82a205.436 205.436 0 0 0 53.061 22.013l5.208 41.689A15 15 0 0 0 223.867 512h64.266c8.284 0 15-6.716 15-15V383.071c0-14.79-13.466-25.968-28.014-23.302a106.09 106.09 0 0 1-20.374 1.723C197.799 360.83 151.264 312.946 150.509 256H0v32.134a15.001 15.001 0 0 0 13.141 14.885z" opacity="1" data-original="#0c1638"></path><path fill="#F0F7FB" d="M120.5 256c0 74.835 60.665 135.5 135.5 135.5 16.576 0 32.453-2.982 47.133-8.429V128.929c-14.68-5.447-30.558-8.429-47.133-8.429-74.835 0-135.5 60.665-135.5 135.5z" opacity="1" data-original="#f0f7fb"></path><path fill="#D6E4F3" d="M256 391.5c16.576 0 32.453-2.982 47.133-8.429V256H120.5c0 74.835 60.665 135.5 135.5 135.5z" opacity="1" data-original="#d6e4f3"></path></g></svg>