<svg xmlns="http://www.w3.org/2000/svg" xml:space="preserve" viewBox="0 0 24 24" id="M">
  <path d="M23 19.9v-2c0-.3-.2-.5-.5-.5h-.8c-.1 0-.3-.2-.3-.2V6.8c0-.1.2-.3.3-.3h.8c.3 0 .5-.2.5-.5V3.6c0-.3-.2-.5-.5-.5h-7.9c-.2 0-.4.1-.5.4l-2.2 8.1-2.1-8.1c-.1-.2-.3-.4-.5-.4h-8c-.3 0-.5.2-.5.5v2.5c0 .3.2.5.5.5h.8c.1 0 .3.2.3.3v10.4c0 .1-.2.2-.3.2h-.8c-.3 0-.5.2-.5.5v2c-.2.1-.4.2-.4.5s.2.5.5.5h6.8c.3 0 .5-.2.5-.5V18c0-.3-.2-.5-.5-.5H6.6v-7.2l2.8 10.3c.1.2.2.4.5.4h2.9c.2 0 .4-.1.5-.4L16 10.2v7.2h-1.1c-.3 0-.5.2-.5.5v2.5c0 .3.2.5.5.5H23c.3 0 .5-.2.5-.5s-.2-.5-.5-.5z" fill="#000000" class="color000000 svgShape"></path>
</svg>
